<svg id="Layer_1" data-name="Layer 1" xmlns="http://www.w3.org/2000/svg" xmlns:xlink="http://www.w3.org/1999/xlink" viewBox="0 0 1920 1080"><defs><style>.cls-1{fill:url(#linear-gradient);}.cls-2{fill:#fff;}</style><linearGradient id="linear-gradient" y1="540" x2="1920" y2="540" gradientUnits="userSpaceOnUse"><stop offset="0" stop-color="#1f2b37"/><stop offset="1" stop-color="#0d4d8d"/></linearGradient></defs><rect class="cls-1" width="1920" height="1080"/><circle class="cls-2" cx="794.54" cy="675.25" r="20.78"/><circle class="cls-2" cx="852.83" cy="719.3" r="25.2"/><circle class="cls-2" cx="1143.12" cy="675.25" r="20.78"/><circle class="cls-2" cx="1082.91" cy="719.3" r="25.2"/><circle class="cls-2" cx="930.16" cy="741.62" r="28.66"/><circle class="cls-2" cx="1007.88" cy="742.39" r="28.66"/><path class="cls-2" d="M865.76,623.38a35.45,35.45,0,0,1-11-2,24.78,24.78,0,0,1-9.78-5.61,11,11,0,0,1-3.67-8.08,13.5,13.5,0,0,1,.49-3.59L942.1,305.51q1.95-6.74,9.29-9.88a39.46,39.46,0,0,1,15.66-3.14,38.19,38.19,0,0,1,16.15,3.37q7.34,3.36,9.3,9.65l99.82,298.57a6.81,6.81,0,0,1,1,3.14q0,4.5-4.16,8.08a33.57,33.57,0,0,1-10,5.84,31.44,31.44,0,0,1-11.26,2.24,19.93,19.93,0,0,1-9.29-2,10.71,10.71,0,0,1-5.39-6.51l-22-66.89H902.46l-21,66.89a10.62,10.62,0,0,1-5.62,6.51A22.78,22.78,0,0,1,865.76,623.38ZM912.25,517h109.61L967.05,348.16Z"/></svg>